<svg id="Layer_1" data-name="Layer 1" xmlns="http://www.w3.org/2000/svg" width="64" height="64" viewBox="0 0 64 64"><defs><style>.cls-1{fill:#1d1d1b;}</style></defs><title>to-do</title><path class="cls-1" d="M52.86,22.17C52.78,10.92,52.23,9,51.4,7.88s-2.08.08-2.46,0-.66-1-2.54-1S43.53,8.13,43.11,8s-.79-1.21-2.88-1.21S37.32,8.5,36.82,8.38,36,7,34.19,7A6.76,6.76,0,0,0,31,8.21c-.34,0-.92-1.25-2.8-1.25s-3.08,1.5-3.83,1.5-1-1.38-2.92-1.54-3.62,1.29-4,1.33-.29-1.21-3.21-1S11,10.3,10.78,12.13c-.17,1.45,1.16,32,1.58,36.95s.79,6.5,2.5,7.25,3.29-.16,3.62-.12a8.93,8.93,0,0,0,3.21,1c1.59,0,3-1.17,3.54-1.17a11.06,11.06,0,0,0,2.67.54,8.37,8.37,0,0,0,3.33-.79,8.41,8.41,0,0,0,3,.63c2.25.08,3-1.21,3.59-1.3s.7.84,2.87.92,3.42-1.33,3.88-1.37,1.29,1.16,3.79,1a4.82,4.82,0,0,0,4.62-3.8C53.61,49.58,52.94,33.42,52.86,22.17ZM51.15,51.71a3.07,3.07,0,0,1-3,2.17c-1.92,0-3-1.09-3.87-1.09s-1.8,1.71-3.63,1.42-2-1-2.87-1.08S35.73,54.75,34,54.54s-2.13-.87-2.8-.79-1.16,1.5-3.5,1.13-2.41-1.09-3.08-1-1.87,1.87-3.46,1.62-1.37-.87-2.21-1-1.79,1.13-3.45,0-1.67-8.12-1.92-15.91-1.29-24.46-1.29-25.75.33-3.25,1.21-3.67c1.73-.83,2.83,1.21,3.7,1S19,8.58,21.07,8.79s1.71,1.5,3.25,1.5S26.11,9,27.94,8.88s1.34,1.16,2.79,1.33,1.17-1.33,2.88-1.33,2.12,1.58,3.5,1.5S38.32,9,39.94,8.79s1.17,1.67,3,1.54,1.09-1.58,2.92-1.66,1.08,1,2.54,1.08,1.71-.54,2-.08.5,14.54.75,21.79S51.61,50.75,51.15,51.71ZM22.32,28.63c0,.41,4.75.08,4.91-.3S27,19.21,27,19s3.63-.46,3.71-.58a41.33,41.33,0,0,0,0-4.55c-.08-.54-13.83.38-13.83.38-.29.17.16,4,.29,4.33s4.17.09,4.17.09S22.28,28.21,22.32,28.63Zm-4.13-11s-.58-2.2-.37-2.41c0,0,11.54-.5,11.62-.29a10.88,10.88,0,0,1,.29,2.54c-.12,0-4.16.79-4.16.79s.58,9.08.46,9.21a16.94,16.94,0,0,1-2.3.25l-1.45-10ZM36.86,29C42,29,43.48,25.29,42.69,22a5.74,5.74,0,0,0-7.08-3.91C27.61,20.88,31.69,28.88,36.86,29Zm-1-9.68a4.49,4.49,0,0,1,5.54,3.06c.62,2.54-.52,5.48-4.56,5.41S29.66,21.43,35.91,19.28Zm.46,7.12c2.22.78,4.5-.63,4.44-2.79-.05-1.46-2-2.35-3.69-2.15A2.6,2.6,0,0,0,36.37,26.4Zm.69-3.75a1.63,1.63,0,0,1,2.31,1.46,1.52,1.52,0,0,1-2.53,1A1.46,1.46,0,0,1,37.06,22.65Zm-3.38,16.4c-.75-4-3-5.87-7.47-6.25a18.83,18.83,0,0,0-7.5.78c-.28.28-.06,3.38.07,3.5A11.32,11.32,0,0,0,21,36.71s.16.19.19,1.4.63,8.22.19,9.16-1.63.47-1.88.59,0,1.66,0,1.66a8.5,8.5,0,0,0,2.87.34,15.88,15.88,0,0,0,8.53-2.5C34.59,45.05,34.43,43,33.68,39.05ZM28.4,47.33c-3.91,1.47-6.47,1.72-6.78,1.6s-.38-.57-.22-.63,1.44-.72,1.44-1.09-1-11.19-1.22-11.44-1.53.28-1.69.09-.37-1.34-.09-1.59,6.59-1.16,9.31,0,3.63,6,3.66,7.78S32.31,45.86,28.4,47.33ZM24.93,36.8c-.25.22.06,7.72.44,8.38s2.69-.1,4.16-1.47,1.65-2.6,1.06-4.81S25.21,36.56,24.93,36.8Zm2.72,6.78c-.31.38-1.16.38-1.16.38s-.4-5.78-.21-6,3.12.06,3.28,2.19S28,43.21,27.65,43.58Zm12-3.22c-1.62.69-2.78,2.85-.5,4.69s4.91-.53,4.66-2.5A3,3,0,0,0,39.65,40.36Zm.21,3.81a1.51,1.51,0,0,1,.29-2.74,1.77,1.77,0,0,1,2.42,1.28A1.69,1.69,0,0,1,39.86,44.17Zm-1.33-6.9C35.43,39,35.15,42.68,36,45.33s4,3.16,6.44,2.47,5-2.56,3.75-7S40.05,36.44,38.53,37.27Zm3.55,9.31c-1.85.53-4.33.14-5-1.9s-.41-4.92,2-6.22c1.17-.64,4.94-.7,5.88,2.72S43.94,46.05,42.08,46.58ZM39.46,35.46c.25.06.72-.31.78-.5a25.71,25.71,0,0,0-1.84-3.63,4.08,4.08,0,0,0-.81.38A18.49,18.49,0,0,0,39.46,35.46Zm-.5-24c.25.09.41-.22.85-.44s1.18-.31,1.28-.44,0-.5-.85-.53a2.08,2.08,0,0,0-1.56.6A.72.72,0,0,0,39,11.49Zm6.78,13.59c.07.19,1.66,2.85,1.79,3s.65-.22.75-.47a13.72,13.72,0,0,0-1.41-3.09C46.71,24.36,45.74,25.08,45.74,25.08ZM45.31,28a29.62,29.62,0,0,0,1.43,2.81c.13.1.88-.12.94-.31a20.16,20.16,0,0,0-1.31-3A2.13,2.13,0,0,0,45.31,28Zm-.07-16.47c.25.1.41-.22.85-.44s1.19-.31,1.28-.43,0-.5-.84-.53a2,2,0,0,0-1.57.59A.71.71,0,0,0,45.24,11.55Zm-12.56.13c.25.09.41-.22.85-.44s1.18-.31,1.28-.44,0-.5-.85-.53a2.12,2.12,0,0,0-1.56.59A.73.73,0,0,0,32.68,11.68ZM34.87,32.8c0,.1,2.12,3.6,2.31,3.78s.66-.37.75-.62a21,21,0,0,0-2.06-3.69C35.74,32.21,34.83,32.7,34.87,32.8Zm5.16,19c-.19-.06-.66.38-.69.53s.22.44.81.72a1.66,1.66,0,0,0,1.44.06.68.68,0,0,0,.44-.62c0-.19-.54,0-1.29-.16S40,51.77,40,51.77ZM21,52.86c-.18-.06-.65.38-.68.54s.22.43.81.71a1.67,1.67,0,0,0,1.44.07.68.68,0,0,0,.43-.63c0-.19-.53,0-1.28-.15S21,52.86,21,52.86Zm6-.53c-.19-.06-.66.38-.69.53s.22.44.81.72a1.71,1.71,0,0,0,1.44.07A.71.71,0,0,0,29,53c0-.19-.54,0-1.29-.16S27,52.33,27,52.33Zm-10.79.28c-.18-.06-.65.38-.68.54s.22.43.81.71a1.67,1.67,0,0,0,1.44.07.68.68,0,0,0,.43-.63c0-.19-.53,0-1.28-.15S16.24,52.61,16.24,52.61Zm17-.71c-.18-.07-.65.37-.68.53s.21.43.81.72a1.7,1.7,0,0,0,1.44.06.69.69,0,0,0,.43-.63c0-.18-.53,0-1.28-.15S33.21,51.9,33.21,51.9Zm8.88-18.22a13.1,13.1,0,0,0-1.22-2.63s-.7.22-.75.35a17.12,17.12,0,0,0,1.25,2.68S42,33.93,42.09,33.68Zm5.09,17.37c-.19-.06-.65.38-.69.53s.22.44.82.72a1.64,1.64,0,0,0,1.43.06.67.67,0,0,0,.44-.62c0-.19-.53,0-1.28-.16S47.18,51.05,47.18,51.05ZM19.53,11.49c.25.09.4-.22.84-.44s1.19-.31,1.28-.44,0-.5-.84-.53a2.08,2.08,0,0,0-1.57.6A.72.72,0,0,0,19.53,11.49Zm7.12-.22c.25.09.41-.22.84-.44s1.19-.31,1.29-.43,0-.5-.85-.54a2.08,2.08,0,0,0-1.56.6A.7.7,0,0,0,26.65,11.27ZM16.18,29.05c.1.25,1.06-.15,1.06-.15l-.53-5.69a5,5,0,0,0-1.06.09C15.56,23.46,16.09,28.8,16.18,29.05Zm-1.4-18.37a2.09,2.09,0,0,0-1.57.59.71.71,0,0,0,.28.81c.25.1.41-.22.85-.43s1.19-.32,1.28-.44S15.59,10.71,14.78,10.68Z"/></svg>