<?xml version="1.0" ?><svg height="72" id="svg1025" version="1.1" viewBox="0 0 19.05 19.050001" width="72" xmlns="http://www.w3.org/2000/svg" xmlns:inkscape="http://www.inkscape.org/namespaces/inkscape" xmlns:sodipodi="http://sodipodi.sourceforge.net/DTD/sodipodi-0.dtd" xmlns:svg="http://www.w3.org/2000/svg"><defs id="defs1022"/><g id="layer1" style="opacity:1"><g id="g3698"><path d="m 5.6512484,11.480313 5.0397496,3.910628 V 3.6590595 l -5.0397496,3.910626 v 0" id="path19987" style="font-variation-settings:normal;fill:none;fill-opacity:1;stroke:#808080;stroke-width:0.499999;stroke-linecap:round;stroke-linejoin:round;stroke-miterlimit:4;stroke-dasharray:none;stroke-dashoffset:0;stroke-opacity:1;paint-order:markers fill stroke;stop-color:#000000"/><path d="m 12.01496,7.9021845 a 1.8327804,1.8327804 0 0 1 0.78739,1.505406 v 0 a 1.8327804,1.8327804 0 0 1 -0.856,1.5507995" id="path20306" style="fill:none;fill-rule:evenodd;stroke:#808080;stroke-width:0.5;stroke-linecap:round;stroke-linejoin:round;stroke-miterlimit:4;stroke-dasharray:none;paint-order:markers fill stroke;stop-color:#000000"/><path d="m 14.92257,5.1212215 a 6.2018327,6.2018327 0 0 1 1.71967,4.286369 v 0 a 6.2018327,6.2018327 0 0 1 -1.78533,4.3539915" id="circle20388" style="fill:none;fill-rule:evenodd;stroke:#808080;stroke-width:0.5;stroke-linecap:round;stroke-linejoin:round;stroke-miterlimit:4;stroke-dasharray:none;paint-order:markers fill stroke;stop-color:#000000"/><path d="m 13.09613,6.5990905 c 0.82876,0.642321 1.36187,1.678554 1.36187,2.808537 v 0 c 0,1.0654005 -0.424,2.0872005 -1.177,2.8405985 -0.0422,0.04224 -0.0853,0.08344 -0.12915,0.123592" id="path21955" style="fill:none;fill-rule:evenodd;stroke:#808080;stroke-width:0.5;stroke-linecap:round;stroke-linejoin:round;stroke-miterlimit:4;stroke-dasharray:none;paint-order:markers fill stroke;stop-color:#000000"/><path d="m 5.5817297,11.429706 h -2.91216 c -0.14504,0 -0.26181,-0.116766 -0.26181,-0.261811 V 7.8820955 c 0,-0.145042 0.11677,-0.261811 0.26181,-0.261811 v 0 h 2.91216" id="rect8136" style="font-variation-settings:normal;fill:none;fill-opacity:1;fill-rule:evenodd;stroke:#808080;stroke-width:0.499999;stroke-linecap:round;stroke-linejoin:round;stroke-miterlimit:4;stroke-dasharray:none;stroke-dashoffset:0;stroke-opacity:1;paint-order:markers fill stroke;stop-color:#000000"/></g></g></svg>