<svg width="33" height="27" xmlns="http://www.w3.org/2000/svg">

 <g>
  <title>background</title>
  <rect fill="none" id="canvas_background" height="402" width="582" y="-1" x="-1"/>
 </g>
 <g>
  <title>Layer 1</title>
  <path id="svg_1" fill="#7c7171" d="m32.4612,3.92278c-1.1709,0.51884 -2.4287,0.8694 -3.751,1.02785c1.3644,-0.8164 2.3851,-2.10131 2.8718,-3.61499c-1.2819,0.7614 -2.6848,1.29735 -4.1479,1.58454c-0.9838,-1.05047 -2.2869,-1.74674 -3.707,-1.98071c-1.4202,-0.23397 -2.8778,0.00745 -4.1466,0.68679c-1.2689,0.67933 -2.2779,1.75857 -2.8705,3.07015c-0.5927,1.31158 -0.7357,2.78212 -0.4069,4.18332c-2.5974,-0.13042 -5.1384,-0.80552 -7.45796,-1.98151c-2.3196,-1.17599 -4.36601,-2.82657 -6.00642,-4.84463c-0.5609,0.96755 -0.88342,2.08935 -0.88342,3.28406c-0.00062,1.07552 0.26423,2.13456 0.77107,3.08317c0.50684,0.9486 1.23998,1.75748 2.13439,2.35478c-1.03728,-0.033 -2.05167,-0.3133 -2.95874,-0.81754l0,0.08414c-0.00011,1.5084 0.52168,2.9705 1.47682,4.138c0.95514,1.1676 2.28481,1.9687 3.76338,2.2675c-0.96225,0.2604 -1.97109,0.2987 -2.95033,0.1121c0.41716,1.298 1.22976,2.433 2.32404,3.2461c1.09427,0.8132 2.41544,1.2638 3.77857,1.2888c-2.31397,1.8165 -5.17168,2.8018 -8.11344,2.7975c-0.5211,0.0001 -1.04176,-0.0303 -1.55929,-0.0912c2.98605,1.92 6.46203,2.9389 10.01203,2.9349c12.0173,0 18.5868,-9.9531 18.5868,-18.58534c0,-0.28045 -0.007,-0.5637 -0.0196,-0.84415c1.2778,-0.92412 2.3809,-2.06846 3.2574,-3.37942l0.0028,-0.00421z"/>
 </g>
</svg>