<svg width="32" height="32" xmlns="http://www.w3.org/2000/svg">

 <g>
  <title>background</title>
  <rect fill="none" id="canvas_background" height="402" width="582" y="-1" x="-1"/>
 </g>
 <g>
  <title>Layer 1</title>
  <path id="svg_1" fill="#cccccc" d="m9.46778,0.494892c1.64482,-0.075721 2.16932,-0.092548 6.35922,-0.092548c4.1899,0 4.7143,0.018229 6.3578,0.092548c1.6434,0.074319 2.7652,0.33654 3.7468,0.716548c1.0278,0.38842 1.9603,0.9956 2.7316,1.78086c0.7852,0.76983 1.391,1.70092 1.778,2.73017c0.3814,0.98158 0.6422,2.10337 0.718,3.744c0.0757,1.64763 0.0925,2.17213 0.0925,6.36063c0,4.1899 -0.0182,4.7143 -0.0925,6.3592c-0.0744,1.6406 -0.3366,2.7624 -0.718,3.744c-0.387,1.0293 -0.9938,1.962 -1.778,2.7329c-0.7713,0.7853 -1.7038,1.3911 -2.7316,1.7781c-0.9816,0.3814 -2.1034,0.6422 -3.744,0.718c-1.6463,0.0757 -2.1707,0.0925 -6.3606,0.0925c-4.1899,0 -4.7144,-0.0182 -6.35922,-0.0925c-1.64062,-0.0744 -2.76242,-0.3366 -3.744,-0.718c-1.02936,-0.3871 -1.96199,-0.9938 -2.73298,-1.7781c-0.78472,-0.7702 -1.39199,-1.7024 -1.77945,-2.7315c-0.38001,-0.9816 -0.640828,-2.1034 -0.716549,-3.744c-0.075722,-1.6477 -0.092549,-2.1721 -0.092549,-6.3606c0,-4.1899 0.018229,-4.7144 0.092549,-6.35782c0.074319,-1.64344 0.336539,-2.76523 0.716549,-3.74681c0.38803,-1.02913 0.99576,-1.9613 1.78085,-2.73158c0.76989,-0.78455 1.70159,-1.39181 2.73018,-1.77945c0.98157,-0.380008 2.10337,-0.640827 3.744,-0.716548l0.0014,0zm12.59222,2.776448c-1.6266,-0.07432 -2.1146,-0.08974 -6.233,-0.08974c-4.1184,0 -4.6064,0.01542 -6.23301,0.08974c-1.50461,0.06871 -2.32072,0.31972 -2.8648,0.53145c-0.71935,0.28045 -1.23397,0.61279 -1.77384,1.15265c-0.51176,0.49787 -0.9056,1.10397 -1.15265,1.77385c-0.21174,0.54407 -0.46274,1.36018 -0.53145,2.86479c-0.07432,1.62662 -0.08974,2.11462 -0.08974,6.23302c0,4.1184 0.01542,4.6064 0.08974,6.233c0.06871,1.5046 0.31971,2.3207 0.53145,2.8648c0.2468,0.6688 0.64083,1.276 1.15265,1.7738c0.4978,0.5118 1.10497,0.9059 1.77384,1.1526c0.54408,0.2118 1.36019,0.4628 2.8648,0.5315c1.62661,0.0743 2.11321,0.0897 6.23301,0.0897c4.1198,0 4.6064,-0.0154 6.233,-0.0897c1.5046,-0.0687 2.3207,-0.3197 2.8648,-0.5315c0.7193,-0.2804 1.2339,-0.6127 1.7738,-1.1526c0.5118,-0.4978 0.9059,-1.105 1.1527,-1.7738c0.2117,-0.5441 0.4627,-1.3602 0.5314,-2.8648c0.0743,-1.6266 0.0898,-2.1146 0.0898,-6.233c0,-4.1184 -0.0155,-4.6064 -0.0898,-6.23302c-0.0687,-1.50461 -0.3197,-2.32072 -0.5314,-2.86479c-0.2805,-0.71936 -0.6128,-1.23398 -1.1527,-1.77385c-0.4979,-0.51172 -1.104,-0.90555 -1.7738,-1.15265c-0.5441,-0.21173 -1.3602,-0.46274 -2.8648,-0.53145zm-8.2032,17.31076c1.1003,0.458 2.3255,0.5198 3.4663,0.1749c1.1408,-0.345 2.1264,-1.0753 2.7886,-2.0662c0.6622,-0.9909 0.9598,-2.181 0.842,-3.367c-0.1178,-1.186 -0.6437,-2.2943 -1.4879,-3.1356c-0.5381,-0.5378 -1.1888,-0.9495 -1.9052,-1.2057c-0.7164,-0.2561 -1.4806,-0.3503 -2.2377,-0.2756c-0.7572,0.0747 -1.4883,0.3163 -2.1408,0.7075c-0.6526,0.3911 -1.2103,0.9221 -1.633,1.5547c-0.4227,0.6325 -0.6998,1.351 -0.8116,2.1035c-0.1117,0.7526 -0.0552,1.5205 0.1655,2.2486c0.2207,0.7281 0.6001,1.3982 1.1109,1.962c0.5107,0.5639 1.1401,1.0075 1.8429,1.2989zm-3.636,-10.3612c0.7362,-0.73623 1.6102,-1.32023 2.5721,-1.71867c0.9619,-0.39843 1.9929,-0.60351 3.0341,-0.60351c1.0411,0 2.0721,0.20508 3.034,0.60351c0.9619,0.39844 1.836,0.98244 2.5722,1.71867c0.7362,0.7362 1.3202,1.6102 1.7186,2.5721c0.3985,0.9619 0.6035,1.9929 0.6035,3.0341c0,1.0411 -0.205,2.0721 -0.6035,3.034c-0.3984,0.9619 -0.9824,1.8359 -1.7186,2.5722c-1.4869,1.4868 -3.5035,2.3221 -5.6062,2.3221c-2.1027,0 -4.1194,-0.8353 -5.6062,-2.3221c-1.48686,-1.4869 -2.32217,-3.5035 -2.32217,-5.6062c0,-2.1028 0.83531,-4.1194 2.32217,-5.6062zm15.2929,-1.14145c0.1824,-0.1721 0.3285,-0.37905 0.4295,-0.60861c0.101,-0.22956 0.155,-0.47705 0.1586,-0.72783c0.0037,-0.25077 -0.043,-0.49973 -0.1373,-0.73214c-0.0943,-0.2324 -0.2342,-0.44353 -0.4116,-0.62087c-0.1773,-0.17735 -0.3885,-0.31731 -0.6209,-0.41159c-0.2324,-0.09429 -0.4813,-0.14099 -0.7321,-0.13733c-0.2508,0.00365 -0.4983,0.05759 -0.7278,0.15861c-0.2296,0.10102 -0.4365,0.24708 -0.6086,0.42951c-0.3347,0.35482 -0.518,0.8261 -0.5109,1.31381c0.0071,0.48772 0.204,0.95346 0.5489,1.29836c0.3449,0.34491 0.8107,0.54181 1.2984,0.54892c0.4877,0.00711 0.959,-0.17613 1.3138,-0.51084z" clip-rule="evenodd" fill-rule="evenodd"/>
 </g>
</svg>